HIERARCHY
ROOT root     
{
	OFFSET 0.0000 0.0000 0.0000
	CHANNELS 6 Xposition Yposition Zposition Zrotation Yrotation Xrotation
	JOINT pelvis   
	{
		OFFSET 0.0000 0.0000 0.0000
		CHANNELS 3 Zrotation Yrotation Xrotation
		JOINT thorax   
		{
			OFFSET 0.0000 23.0750 -5.0000
			CHANNELS 3 Zrotation Yrotation Xrotation
			JOINT rclavicle
			{
				OFFSET 0.0000 28.0009 0.0000
				CHANNELS 3 Zrotation Yrotation Xrotation
				JOINT rhumerus 
				{
					OFFSET -18.5725 5.5939 0.0000
					CHANNELS 3 Zrotation Yrotation Xrotation
					JOINT rradius  
					{
						OFFSET -24.8459 0.0000 0.0000
						CHANNELS 3 Zrotation Yrotation Xrotation
						JOINT rhand    
						{
							OFFSET -24.5477 0.0000 0.0000
							CHANNELS 3 Zrotation Yrotation Xrotation
							End Site
							{
								OFFSET -8.1826 0.0000 0.0000
							}
						}
					}
				}
			}
			JOINT lclavicle
			{
				OFFSET 0.0000 28.0009 0.0000
				CHANNELS 3 Zrotation Yrotation Xrotation
				JOINT lhumerus 
				{
					OFFSET 18.5725 5.5939 0.0000
					CHANNELS 3 Zrotation Yrotation Xrotation
					JOINT lradius  
					{
						OFFSET 24.8459 0.0000 0.0000
						CHANNELS 3 Zrotation Yrotation Xrotation
						JOINT lhand    
						{
							OFFSET 24.5477 0.0000 0.0000
							CHANNELS 3 Zrotation Yrotation Xrotation
							End Site
							{
								OFFSET 8.1826 0.0000 0.0000
							}
						}
					}
				}
			}
			JOINT head     
			{
				OFFSET 0.0000 35.2030 0.0000
				CHANNELS 3 Zrotation Yrotation Xrotation
				End Site
				{
					OFFSET 0.0000 11.7343 0.0000
				}
			}
		}
		JOINT rfemur   
		{
			OFFSET -8.2817 0.0000 0.0000
			CHANNELS 3 Zrotation Yrotation Xrotation
			JOINT rtibia   
			{
				OFFSET 0.0000 -43.3627 0.0000
				CHANNELS 3 Zrotation Yrotation Xrotation
				JOINT rfoot    
				{
					OFFSET 0.0000 -38.2947 0.0000
					CHANNELS 3 Zrotation Yrotation Xrotation
					JOINT rtoes    
					{
						OFFSET 0.0000 0.0000 16.6054
						CHANNELS 3 Zrotation Yrotation Xrotation
						End Site
						{
							OFFSET 0.0000 0.0000 5.5351
						}
					}
				}
			}
		}
		JOINT lfemur   
		{
			OFFSET 8.2817 0.0000 0.0000
			CHANNELS 3 Zrotation Yrotation Xrotation
			JOINT ltibia   
			{
				OFFSET 0.0000 -43.3627 0.0000
				CHANNELS 3 Zrotation Yrotation Xrotation
				JOINT lfoot    
				{
					OFFSET 0.0000 -38.2947 0.0000
					CHANNELS 3 Zrotation Yrotation Xrotation
					JOINT ltoes    
					{
						OFFSET 0.0000 0.0000 16.6054
						CHANNELS 3 Zrotation Yrotation Xrotation
						End Site
						{
							OFFSET 0.0000 0.0000 5.5351
						}
					}
				}
			}
		}
	}
}
MOTION
Frames: 11
Frame Time: .0333333
-13.362 87.655 5.159 -140.112 86.6953 -118.54 0 -0 0 -3.1324 0.00409948 -4.81531 18.0427 -9.64235 3.41209e-05 42.216 11.522 28.0512 -0 81.0892 -0 2.67799 -0.0900998 -0.00209999 -18.7502 16.3163 9.99039e-05 -45.2125 13.1309 25.7572 8.91391e-07 -73.3759 -1.19644e-06 5.45957 0.419905 0.0200001 -6.00326 8.91942 -4.493 4.29702 -9.46678 -4.89955 -0 -0 17.6687 3.66215e-06 0.590301 22.8372 0.229103 -1.70936e-06 -76.182 -15.9279 8.01322 -38.7173 -0 -0 18.5323 4.49089e-07 6.88683 0.839893 0.101399 -8.81335e-07 -44.6363 
-11.903 87.251 5.2359 -132.249 86.1436 -111.172 0 -0 0 -2.87398 0.341502 -4.82548 18.0114 -9.7248 -2.23571e-05 41.4406 11.6601 28.0877 -2.42677e-06 82.3943 -2.12425e-06 2.6239 -0.128299 -0.00289996 -18.3707 16.3765 -2.43834e-05 -45.1977 14.0754 25.931 9.19772e-07 -73.8152 -1.22467e-06 5.42238 0.396499 0.0188004 -4.80702 9.59567 -4.03299 4.71342 -9.71125 -3.78613 -0 -0 18.1768 -1.16509e-05 1.28576 23.2988 0.508608 2.15868e-06 -77.4243 -16.4568 9.02405 -38.4633 -0 -0 17.4044 -3.39384e-07 6.18605 0.689384 0.0746998 4.25605e-07 -44.4614 
-10.435 86.82 5.3142 -125.984 85.5719 -105.378 0 -0 0 -2.64569 0.6521 -4.91882 18.0291 -9.80871 -4.39843e-05 40.6729 11.8242 28.1393 -2.03718e-06 83.6609 -1.8234e-06 2.56889 -0.1137 -0.00259999 -17.9512 16.4348 -0.000102273 -45.2226 15.0641 26.0658 9.50661e-07 -74.2703 -1.25539e-06 5.33729 0.3736 0.0173999 -3.47882 10.3139 -3.49993 5.07728 -9.98347 -2.76458 -0 -0 18.8553 1.68054e-05 2.22533 23.7505 0.896596 -5.06128e-06 -78.6084 -16.6977 9.74769 -38.1852 -0 -0 16.6121 -6.39111e-07 5.65135 0.521701 0.051599 -5.73531e-08 -43.6614 
-8.967 86.37 5.3864 -121.138 84.9685 -100.968 0 -0 0 -2.47503 0.908701 -5.10115 18.1094 -9.89076 2.12101e-05 39.9138 12.0242 28.198 -3.05568e-06 84.8767 -2.794e-06 2.52601 -0.0405005 -0.000900036 -17.5092 16.4964 -0.000159817 -45.2644 16.0803 26.1552 9.83643e-07 -74.731 -1.28819e-06 5.20803 0.348194 0.0157999 -2.01017 11.0679 -2.89509 5.35499 -10.2994 -1.87127 -0 -0 19.7268 -1.02472e-05 3.46276 24.2255 1.4223 -5.52091e-06 -79.7832 -16.6216 10.0899 -37.8941 -0 -0 16.2022 -5.34966e-07 5.36026 0.312102 0.0293005 1.65523e-07 -42.1279 
-7.5059 85.91 5.4438 -117.476 84.3915 -97.6896 0 -0 0 -2.38347 1.08514 -5.36807 18.2579 -9.95976 6.63355e-05 39.1781 12.2524 28.2447 -0 86.0269 -0 2.51205 0.0952002 0.00209995 -17.0703 16.5582 9.30853e-05 -45.3048 17.1031 26.1957 0 -75.1794 0 5.04493 0.317902 0.0139999 -0.403795 11.8495 -2.22397 5.51481 -10.6785 -1.13751 -0 -0 20.8189 -2.15352e-05 5.03478 24.7654 2.11358 1.58262e-05 -80.9764 -16.2419 10.0039 -37.6099 -0 -0 16.2244 -1.70073e-08 5.34786 0.0257 0.00240004 1.28812e-08 -39.7963 
-6.0584 85.446 5.4765 -114.846 83.8749 -95.3887 0 -0 0 -2.3886 1.16017 -5.70656 18.477 -10.0117 4.16775e-05 38.4825 12.5066 28.2645 -0 87.1261 -0 2.53822 0.293901 0.00650009 -16.662 16.629 7.83387e-05 -45.3252 18.0949 26.1907 -1.35688e-06 -75.6057 1.05263e-06 4.86563 0.283201 0.0119997 1.32575 12.651 -1.4973 5.52581 -11.1384 -0.589211 -0 -0 22.1532 -5.52026e-06 6.94969 25.4019 2.99328 -1.57598e-05 -82.1784 -15.6106 9.48822 -37.3591 -0 -0 16.7103 2.14163e-07 5.6081 -0.375999 -0.0368998 3.86918e-07 -36.5839 
-4.6293 84.986 5.4759 -113.078 83.4379 -93.8961 0 -0 0 -2.49417 1.12352 -6.09384 18.757 -10.0538 2.551e-05 37.8438 12.7938 28.249 -5.55727e-06 88.1397 -5.7421e-06 2.60395 0.554104 0.0125998 -16.3153 16.7128 -0.000109672 -45.3038 19.0164 26.1477 7.67495e-07 -75.9869 -9.82553e-07 4.68963 0.247996 0.0101999 3.14855 13.4647 -0.732491 5.3695 -11.6825 -0.244282 -0 -0 23.7471 2.26267e-05 9.17276 26.1628 4.07247 -7.24219e-07 -83.3392 -14.8245 8.6178 -37.1817 -0 -0 17.6945 -2.97732e-07 6.06697 -0.944413 -0.1004 8.15548e-08 -32.3808 
-3.2205 84.536 5.4343 -112.047 83.0828 -93.0987 0 -0 0 -2.69793 0.9787 -6.49917 19.0735 -10.0753 -5.23879e-05 37.3041 13.0837 28.1803 -3.51389e-05 89.0222 -3.52744e-05 2.71356 0.868895 0.0205997 -16.0495 16.8102 -5.60414e-05 -45.236 19.8213 26.0797 7.87146e-07 -76.2994 -1.00212e-06 4.5392 0.215 0.00850008 5.02517 14.2819 0.0494208 5.03321 -12.307 -0.106472 -0 -0 25.6086 -2.2199e-05 11.6303 27.0595 5.34909 -5.77839e-05 -84.3877 -13.9934 7.50949 -37.1002 -0 -0 19.1688 -5.41067e-07 6.62415 -1.7062 -0.198105 -2.28895e-06 -27.234 
-1.8325 84.101 5.3464 -111.566 82.8315 -92.824 0 -0 0 -2.98754 0.744898 -6.88784 19.4014 -10.0808 8.56326e-05 36.8955 13.3621 28.0494 -0 89.7956 -0 2.85608 1.22737 0.0305996 -15.882 16.9237 6.07157e-05 -45.1163 20.4657 26 3.71595e-07 -76.512 -9.58783e-07 4.43444 0.189895 0.00739969 6.90477 15.0968 0.822597 4.52007 -12.9835 -0.170221 -0 -0 27.7317 2.53186e-06 14.1934 28.0956 6.79256 -6.7334e-06 -85.2211 -13.2217 6.29987 -37.1128 -0 -0 21.0738 -1.90085e-06 7.18168 -2.65835 -0.334797 -4.74867e-07 -21.3337 
-0.4653 83.686 5.209 -111.482 82.6844 -92.9351 0 -0 0 -3.34942 0.453403 -7.22735 19.7165 -10.0731 1.76999e-05 36.6483 13.608 27.8553 180 89.4453 180 3.01379 1.61626 0.0424992 -15.8249 17.0489 5.01531e-05 -44.9519 20.9085 25.9231 8.07348e-07 -76.5984 -1.02227e-06 4.39241 0.178495 0.00679989 8.73361 15.9058 1.55852 3.84203 -13.6659 -0.42371 -0 -0 30.1007 -7.00905e-05 16.6901 29.2553 8.336 3.90734e-05 -85.7385 -12.5853 5.09984 -37.1816 -0 -0 23.2784 2.49435e-06 7.68708 -3.74922 -0.505701 1.7439e-06 -15.1336 
0.8808 83.297 5.0197 -111.659 82.6359 -93.3096 0 -0 0 -3.77208 0.141992 -7.49343 19.9956 -10.0561 2.67795e-05 36.5827 13.7964 27.5967 -180 88.752 -180 3.16258 2.01946 0.0558008 -15.8805 17.1811 8.76675e-05 -44.7526 21.1114 25.8599 8.03222e-07 -76.5405 -1.01815e-06 4.42542 0.186198 0.00719999 10.4583 16.7057 2.22897 3.01856 -14.3027 -0.857219 -0 -0 32.6913 -6.62249e-05 18.9177 30.508 9.87009 3.06246e-05 -85.857 -12.1253 3.97749 -37.2372 -0 -0 25.6049 1.57313e-07 8.13837 -4.89884 -0.699699 -3.26288e-07 -9.22971 
